<?xml version="1.0" encoding="utf-8"?>
<!-- Generator: Adobe Illustrator 19.1.1, SVG Export Plug-In . SVG Version: 6.00 Build 0)  -->
<svg version="1.1" id="圖層_1" xmlns="http://www.w3.org/2000/svg" xmlns:xlink="http://www.w3.org/1999/xlink" x="0px" y="0px"
	 viewBox="-380 261.6 197.3 38.4" style="enable-background:new -380 261.6 197.3 38.4;" xml:space="preserve">
<style type="text/css">
	.st0{opacity:0.3;}
	.st1{fill:#FFFFFF;}
	.st2{fill:#053EBD;}
	.st3{fill:#FF2108;}
</style>
<g>
	<g>
		<g class="st0">
			<path d="M-240.6,278.2c-0.3,1.5-0.6,2.9-0.9,4.3c-0.3,1.4-0.5,2.7-0.8,4.1c-0.4,2-1,4-2.1,5.8c-0.5,0.8-1.1,1.6-1.8,2.3
				s-2.9,0-3.1-1.1c0-0.2,0.1-0.5,0.3-0.7c2-1.5,3.3-3.6,4.2-5.9c0.4-1,0.6-2,0.8-3.1c0.3-1.2,0.6-2.5,0.8-3.7
				c0.1-0.3,0-0.8-0.2-0.9s-0.7-0.1-1,0c-0.9,0.4-2.3,0-2.8-0.8c-0.1-0.2-0.1-0.7,0.1-0.8c0.6-0.3,1.2-0.6,1.8-0.8
				c0.5-0.2,1.1-0.2,1.6-0.3c0.2-0.1,0.4-0.5,0.4-0.7c0-0.7-0.2-1.5-0.3-2.2c-0.1-0.9,0.4-1.6,1.2-1.8c0.7-0.2,1.3-0.3,1.9,0.1
				c0.4,0.3,0.7,0.6,0.5,1.2c-0.2,0.7-0.3,1.4-0.5,2.1c-0.1,0.6,0.1,1,0.8,1.1c0.6,0.1,1.2,0.2,1.8,0.4c1.2,0.4,2.1,1.3,2.2,2.6
				c0.2,2.6,0.2,5.1-0.6,7.6c-0.7,1.9-1.9,3.4-4.1,3.6c-0.7,0.1-1.3-0.2-1.8-0.8c-0.4-0.6,0-1.5,0.7-1.5c2.6-0.2,2.4-0.9,2.8-2.9
				c0.3-1.4,0.2-3,0.2-4.5C-238.3,279.5-239.2,278.5-240.6,278.2z"/>
			<path d="M-326.7,282.3c1.3-0.8,2.5-1.6,3.7-2.4c2.1-1.2,4.4-2,6.9-1.9c0.7,0,1-0.4,0.8-1.1c-0.2-0.7-0.5-1.2-1.3-1.2
				c-0.7,0-0.8-0.4-0.5-0.9c0.7-1.5,2.2-1.8,3.6-0.5c0.5,0.5,1,1.1,1.2,1.8c0.4,1.6,0.8,3.2,1,4.9c0,0.3-0.5,0.9-1,1.1
				c-0.6,0.4-1.2,0.2-1.7-0.3c-0.1-0.1-0.2-0.3-0.3-0.5c-0.5-0.7-1.7-1.2-2.6-1.1c-2.6,0.5-4.8,1.7-7,2.9c-1.3,0.7-2.5,1.6-3.8,2.4
				c-1.3,0.8-4-0.5-4-2c0-0.3,0.1-0.6,0.3-0.9c1.2-1.8,2.4-3.6,3.7-5.3c1.2-1.5,2.5-3,3.9-4.4c1.2-1.3,3.4-1,4.5,0.4
				c0.4,0.6,0,1.5-0.9,1.8c-0.7,0.3-1.5,0.4-2.2,0.9c-1.8,1.2-3.2,2.9-4.2,4.9C-327,281.2-327.4,281.8-326.7,282.3z"/>
			<path d="M-314.3,288.1c0.2,0.6,0.3,1.2,0.4,1.8c0,0.2,0,0.6-0.1,0.7c-1,1-2,2-3,2.8c-0.3,0.3-0.9,0.3-1.4,0.3
				c-1.2,0-2.4,0.1-3.6,0c-0.9-0.1-1.8-0.4-2.7-0.8c-0.4-0.2-0.6-0.8-0.8-1.3c-0.3-0.7-0.4-1.5-0.6-2.2c-0.3-0.9-0.1-1.6,0.8-1.9
				c2.6-1,5.1-1.9,7.7-2.8c0.3-0.1,0.7-0.1,0.9,0.1c0.6,0.3,1.2,0.7,1.8,1.1C-314,286.5-314.1,287.3-314.3,288.1z M-317.9,286.8
				c-1.3,0.6-2.7,1.2-4,1.9c-0.5,0.3-0.5,1.4-0.1,2s1,0.5,1.5,0.3c0.6-0.2,1.2-0.5,1.7-0.7c1.2-0.4,1.8-1.2,1.9-2.4
				C-316.9,287.3-317.2,287-317.9,286.8z"/>
			<g>
				<path d="M-195,291.5c0.2,0,0.5-0.1,0.7-0.1c1.6,0,3.2,0.1,4.7,0.1c0.6,0,1.2-0.1,1.8-0.3c0.8-0.2,1.4-0.7,1.4-1.7
					c0-0.9,0.1-1.8,0.1-2.6c0.1-1.6,0.2-3.2,0.1-4.9c0-1.4-0.2-2.7-0.4-4.1c-0.1-0.5-0.2-1-0.2-1.5c-0.1-1.1-0.7-1.7-1.6-2.2
					c-0.2-0.1-0.6-0.2-0.9-0.1c-1.6,0.3-3.2,0.4-4.6,1.3c-0.6,0.4-1,0.1-1.3-0.4c-0.2-0.3-0.4-0.8-0.4-1.2c-0.2-1.2,0.3-1.5,1.5-1.3
					c0.8,0.1,1.8,0,2.6-0.1c1.2-0.1,2.4-0.3,3.6-0.4c1.6-0.1,2.5,1.1,3.3,2.2s0.9,2.3,1,3.6c0.1,1.1,0.2,2.2,0.3,3.3
					c0,0.7-0.1,1.4-0.1,2.1c-0.1,2-0.1,4-0.2,6c0,0.9-0.2,1.7-0.4,2.6c-0.4,1.5-1.7,1.8-3,1.9c-1.1,0.1-2.3-0.1-3.4-0.3
					c-1.1-0.2-2.2-0.4-3.3-0.7c-0.5-0.2-1-0.6-1.5-0.9C-195.1,291.7-195,291.6-195,291.5z"/>
				<path d="M-199,284.4c0-0.4-0.1-0.7,0-0.9c0.2-0.4,0.5-1,0.8-1c1.5,0.2,2.3-0.9,3.3-1.5c1.3-0.8,2.7-1,4.2-0.6
					c0.7,0.2,0.9,0.7,0.7,1.4c-0.1,0.3-0.2,0.6-0.3,0.8c-0.3,0.7-0.4,1.3,0.4,1.7c0.3,0.2,0.4,0.6,0.6,1c-0.4,0.2-0.7,0.5-1.1,0.6
					c-1,0.2-2.1,0.4-3.1,0.6c-0.2,0-0.4,0.2-0.6,0.3c-1,0.9-2.1,1-3.4,0.3C-198.6,286.4-199.2,285.5-199,284.4z M-195.9,283.7
					c0,0.8,0.4,1.4,1,1.4c0.8,0,1.9-1.2,1.9-2.1c0-0.7-0.4-1-1.1-1.1C-195,281.9-195.9,282.7-195.9,283.7z"/>
				<path d="M-200.7,278.4c0.1,0,0.3,0,0.4,0.1c1.4,0.5,2.7,0.2,4-0.2c2-0.5,4-1.1,5.9-1.5c0.4-0.1,0.9,0,1.3,0.1
					c0.1,0,0.1,0.6,0,0.6c-0.6,0.4-1.1,0.8-1.8,1.1c-1.6,0.6-3.2,1-4.8,1.5c-1,0.3-2,0.6-3.1,0.8c-0.5,0.1-1-0.2-1.5-0.4
					c-0.4-0.2-0.7-0.4-1-0.7c-0.2-0.2-0.5-0.7-0.5-0.9c0.1-0.3,0.6-0.5,0.9-0.7C-200.8,278.3-200.7,278.3-200.7,278.4z"/>
			</g>
			<g>
				<path d="M-215.4,281c-0.4,0.5-0.7,1.1-1.1,1.5c-0.4,0.5-0.9,1-1.2,1.5c-0.1,0.2,0,0.7,0,1c0.3,0,0.5,0,0.8,0
					c1-0.2,1.3-0.9,1.4-1.7c0.1-0.7,0.4-0.8,1-0.9c1-0.1,1.9,0.2,2.5,0.9c0.8,0.9,1.6,1.9,2.2,2.9c0.5,0.9,0.3,1.4-0.7,2.1
					c-0.8,0.5-1.3,0.4-1.9-0.4c-0.2-0.3-0.4-0.6-0.5-0.9c-0.5-1.1-0.8-1.2-1.8-0.6c-1,0.6-2,1.1-3,1.8c-1.2,0.8-2.4,0.5-3.6,0.1
					c-0.8-0.3-1-1-0.5-1.8c1.1-1.6,2.2-3.1,3.2-4.7c0.4-0.6,0.7-1.2,0.9-1.9c0.3-0.7,1-0.9,1.5-0.3C-216,280-215.8,280.5-215.4,281z
					"/>
				<path d="M-222,277.7c0.8,0.2,1.3,1,1,1.6c-1,2.1-2,4.2-3.1,6.3c-0.3,0.6-0.7,1.2-1.1,1.7c-0.6,0.7-1.4,0.6-2.1,0
					c-0.9-0.8-1-2.1-0.2-3c1.7-1.7,3.1-3.8,4.4-5.8C-222.8,278.2-222.3,278-222,277.7z"/>
				<path d="M-212.6,276c1.1,0.6,2.1,1.2,3.1,1.8c0.2,0.1,0.5,0.4,0.6,0.6c0.3,0.9,0.6,1.9,0.7,2.9c0.1,1.2-0.5,1.4-1.6,1.1
					c-1.6-0.5-2.5-1.6-3-3.1c-0.1-0.3-0.3-0.7-0.4-1C-213.6,277.3-213.5,276.8-212.6,276z"/>
			</g>
			<g>
				<path d="M-298.4,279.4c-0.1,0.7-0.3,1.2-0.4,1.8c-0.2,1.7-0.3,3.4-0.4,5.1c0,1.1,0,2.1,0.1,3.2c0.1,0.8-0.2,1.3-0.9,1.5
					c-0.8,0.2-1.5,0.1-1.9-0.7c-0.5-1-0.9-2-1.3-3.1c-0.5-1.4-1-2.8-1.5-4.1c-0.2-0.5-0.3-0.8,0.1-1.3c0.2-0.3,0.3-0.7,0.5-0.9
					c0.4-0.4,0.8-0.9,1.3-1.1c0.5-0.2,0.9,0,0.9,0.7c0,1.1,0,2.2,0,3.3c0,0.2,0,0.5,0.1,0.6c0.2,0.4,0.5,0.7,0.8,1
					c0.1-0.4,0.3-0.7,0.4-1.1c0.3-1.4,0.5-2.8,0.7-4.2c0.1-0.5,0.3-1,1-1c0.2,0,0.4-0.3,0.6-0.5c0.5-0.5,0.9-1.1,1.5-1.5
					c0.2-0.2,0.8-0.1,1,0.1c0.5,0.5,0.9,0.3,1.2-0.1c0.1-0.2,0.2-0.4,0.3-0.6c0.7-1.6,2.1-1.9,3.5-0.9c0.5,0.4,0.8,0.4,1.1-0.1
					c0.1-0.2,0.3-0.4,0.4-0.5c0.5-0.8,1.2-1.1,2-0.7c0.7,0.3,1.3,0.9,1.9,1.5c0.5,0.5,0.3,1.1-0.2,1.5c-1,0.8-2,1.5-3,2.3
					c-1.1,0.8-1,0.7-0.4,1.9c0.2,0.3,0.1,0.9,0,1.2c-0.3,0.8-0.8,1.6-1.2,2.3c-0.4,0.6-0.2,1.1,0.3,1.5c0.4,0.3,0.8,0.5,1.2,0.7
					c1,0.3,1.6,1.1,1.7,2.1c0.2,2.4-0.2,4.7-2.3,6.2c-1.3,0.9-2.9,1.5-4.6,1.5c-0.8,0-1.6,0-2.4,0c-0.3,0-0.6-0.3-0.9-0.5
					c0.2-0.3,0.4-0.7,0.7-0.8c0.8-0.2,1.6-0.4,2.5-0.5c3.1-0.2,4.5-3.3,3.7-5.8c-0.3-0.9-1.2-1-2-1.2c-1.1-0.2-1.3-0.5-0.9-1.5
					c0.3-0.7,0.8-1.4,1.1-2.2c0.1-0.3,0.1-0.9-0.1-1.1c-0.2-0.2-0.8-0.1-1.2-0.1c-0.2,0-0.4,0.2-0.7,0.3c-0.4,0-0.8-0.1-1.2-0.1
					c0-0.3,0-0.7,0.1-1c0.2-0.7,0.7-1.1,1.5-1.4c1-0.3,1.9-0.7,2.8-1.3c0.6-0.4,1-1.2,1.4-1.8c0.3-0.4,0-0.7-0.4-0.8
					c-1.1-0.2-2.2,0.1-3.1,0.7c-0.9,0.7-1.8,1.5-2.7,2.2c-0.6,0.5-1.4,0.4-1.9,0C-297.8,279.8-298,279.7-298.4,279.4z"/>
				<path d="M-297.4,272.8c0-0.5,0-1,0-1.5c0.1-1.1,1.1-2,2.1-1.9c0.8,0.1,1.2,0.6,0.9,1.4c-0.1,0.5-0.1,0.9-0.2,1.4
					c0.5-0.2,1-0.2,1.4-0.5c1-0.7,2-0.6,3.1-0.3c0.3,0.1,0.7,0.4,0.8,0.7c0.1,0.1-0.3,0.5-0.5,0.7c-0.2,0.2-0.5,0.2-0.6,0.4
					c-0.5,0.9-1,1.3-1.9,0.5c-0.2-0.1-0.7,0.1-1,0.3c-0.7,0.4-1.2,0.9-1.9,1.2c-0.3,0.2-0.8,0.3-1.1,0.2c-0.4-0.2-0.7-0.7-0.9-1.1
					C-297.5,273.8-297.4,273.3-297.4,272.8L-297.4,272.8z"/>
				<path d="M-300.7,276c-0.2,0.3-0.4,0.8-0.6,0.8c-0.6,0-1.2-0.1-1.7-0.4c-0.6-0.4-1-1.1-1.4-1.7c-0.1-0.2-0.1-0.7,0.1-0.9
					c0.4-0.5,0.9-1,1.4-1.5c0.4-0.4,0.8-0.2,1,0.2C-301.4,273.6-301.1,274.7-300.7,276z"/>
			</g>
			<g>
				<path d="M-273.9,279.9c0.1-0.1,0.4-0.2,0.4-0.3c0.8-1.4,2.3-1.6,3.7-2c0.7-0.2,1.3-0.3,1.3-1.1c0.1-1.2-0.3-1.8-1.2-2.1
					c-0.6-0.2-1.2-0.3-1.8-0.5c-0.5-0.2-1.1-0.6-0.9-1.4c0.2-0.8,0.8-1,1.7-0.7c1.2,0.4,2.4,0,3.6-0.3c1-0.3,2-0.8,3,0.1
					c0.5,0.5,0.6,1,0,1.4c-0.4,0.3-0.8,0.5-1.2,0.7c-1.1,0.4-1.7,1.3-1.3,2.4c0.1,0.2,0.5,0.3,0.7,0.3c1.6-0.1,3.3-0.4,4.9-0.2
					c0.9,0.1,1.8,1,2.4,1.8c1.3,1.9,1.5,1.8-0.3,3.4c-0.5,0.5-1,1-1.7,1.3c-0.4,0.2-0.9,0.2-1.3,0.1c-0.6-0.1-0.8-0.7-0.4-1.3
					c0.3-0.5,0.8-0.9,1-1.4c0.2-0.4,0.4-1,0.3-1.2c-0.2-0.4-0.8-0.8-1.2-0.8c-1.3,0-2.5,0.2-3.8,0.4c-0.3,0.1-0.6,0.6-0.6,0.9
					c-0.1,1.2-0.1,2.3,0,3.5c0,0.2,0.3,0.4,0.4,0.7c0.2-0.2,0.5-0.3,0.6-0.5c0.1-0.3,0-0.7,0.1-1c0-0.4,0-0.9,0.1-1.3
					c0.1-0.3,0.5-0.5,0.8-0.6c0.2,0,0.5,0.3,0.6,0.5c0.9,1.3,0.9,1.6,0,3c-0.1,0.2-0.2,0.7,0,0.8c1.2,0.9,0.9,2,0.5,3.1
					c-0.2,0.7-0.3,1.3,0.2,2c0.4,0.5,0.1,1.1-0.6,1.1c-0.3,0-0.7,0-1,0c-1,0-1.3,0.2-1.4,0.9s0.6,1.4,1.3,1.5
					c1.1,0.1,2.1,0.1,3.2,0.2c0.4,0,1.1,0.1,1.1,0.3c0.1,0.5,0.2,1.2-0.1,1.7c-0.3,0.5-0.8,1-1.6,0.8c-1.2-0.3-2.5-0.3-3.7-0.7
					c-1.1-0.4-1.8-1.2-1.7-2.5c0.1-0.7-0.2-1.2-0.8-1.6c-0.9-0.7-0.8-1.1,0.1-1.7c0.2-0.1,0.5-0.4,0.4-0.5c-0.1-0.2-0.3-0.4-0.6-0.5
					c-0.2,0-0.5,0.1-0.7,0.3c-0.1,0-0.1,0.2-0.1,0.3c-0.1,0.6-0.1,1.2-1,1.2c-0.7,0-1.4-0.7-1.6-1.3c-0.2-0.9,0.3-2.7,1.3-3.2
					c0.8-0.4,1.5-0.9,2.1-1.5c0.2-0.2,0.4-0.6,0.4-1c0-0.6-0.2-1.2-0.2-1.8c0-0.3,0-0.7-0.1-1c-0.2-1.1-0.6-1.2-1.6-0.7
					s-2,0.9-3,1.4c-0.2,0.1-0.5,0.2-0.7,0.1c-0.8-0.3-0.8,0.2-0.8,0.7c0,0.1,0,0.2,0,0.2c0.2,0.7,0.2,1.5-0.5,1.8
					c-0.5,0.2-1.2-0.2-1.7-0.5c-1.2-0.7-1.4-1.4-0.7-2.6c0.6-1,1.4-1.9,2.2-2.7c0.2-0.2,0.8-0.1,1.3-0.1c0,0.4,0,0.7,0,1.1
					c0,0.3-0.1,0.6-0.1,0.8C-274.1,279.9-274,279.9-273.9,279.9z M-266.6,286.2c-0.2,0.6,0.2,1,0.8,0.9c0.2,0,0.6-0.5,0.6-0.7
					c0-0.5,0-1.1-0.8-1.2C-266.6,285.3-266.6,285.8-266.6,286.2z M-267.8,286.4c-0.3-0.3-0.6-0.6-0.7-0.6c-0.3,0.2-0.6,0.5-0.9,0.7
					c0.2,0.2,0.5,0.5,0.7,0.6C-268.4,287.1-268.2,286.7-267.8,286.4z"/>
				<path d="M-269.4,282.4c0,0.8-0.6,1.2-1.4,1c-0.4-0.1-0.7-0.2-1-0.5c-0.2-0.2-0.5-0.5-0.5-0.7c0-0.3,0.3-0.7,0.6-0.9
					C-270.6,280.8-269.4,281.4-269.4,282.4z"/>
			</g>
		</g>
		<g>
			<path class="st1" d="M-239.6,277.2c-0.3,1.5-0.6,2.9-0.9,4.3c-0.3,1.4-0.5,2.7-0.8,4.1c-0.4,2-1,4-2.1,5.8
				c-0.5,0.8-1.1,1.6-1.8,2.3s-2.9,0-3.1-1.1c0-0.2,0.1-0.5,0.3-0.7c2-1.5,3.3-3.6,4.2-5.9c0.4-1,0.6-2,0.8-3.1
				c0.3-1.2,0.6-2.5,0.8-3.7c0.1-0.3,0-0.8-0.2-0.9c-0.2-0.1-0.7-0.1-1,0c-0.9,0.4-2.3,0-2.8-0.8c-0.1-0.2-0.1-0.7,0.1-0.8
				c0.6-0.3,1.2-0.6,1.8-0.8c0.5-0.2,1.1-0.2,1.6-0.3c0.2-0.1,0.4-0.5,0.4-0.7c0-0.7-0.2-1.5-0.3-2.2c-0.1-0.9,0.4-1.6,1.2-1.8
				c0.7-0.2,1.3-0.3,1.9,0.1c0.4,0.3,0.7,0.6,0.5,1.2c-0.2,0.7-0.3,1.4-0.5,2.1c-0.1,0.6,0.1,1,0.8,1.1c0.6,0.1,1.2,0.2,1.8,0.4
				c1.2,0.4,2.1,1.3,2.2,2.6c0.2,2.6,0.2,5.1-0.6,7.6c-0.7,1.9-1.9,3.4-4.1,3.6c-0.7,0.1-1.3-0.2-1.8-0.8c-0.4-0.6,0-1.5,0.7-1.5
				c2.6-0.2,2.4-0.9,2.8-2.9c0.3-1.4,0.2-3,0.2-4.5C-237.3,278.5-238.2,277.5-239.6,277.2z"/>
			<path class="st1" d="M-325.7,281.3c1.3-0.8,2.5-1.6,3.7-2.4c2.1-1.2,4.4-2,6.9-1.9c0.7,0,1-0.4,0.8-1.1c-0.2-0.7-0.5-1.2-1.3-1.2
				c-0.7,0-0.8-0.4-0.5-0.9c0.7-1.5,2.2-1.8,3.6-0.5c0.5,0.5,1,1.1,1.2,1.8c0.4,1.6,0.8,3.2,1,4.9c0,0.3-0.5,0.9-1,1.1
				c-0.6,0.4-1.2,0.2-1.7-0.3c-0.1-0.1-0.2-0.3-0.3-0.5c-0.5-0.7-1.7-1.2-2.6-1.1c-2.6,0.5-4.8,1.7-7,2.9c-1.3,0.7-2.5,1.6-3.8,2.4
				c-1.3,0.8-4-0.5-4-2c0-0.3,0.1-0.6,0.3-0.9c1.2-1.8,2.4-3.6,3.7-5.3c1.2-1.5,2.5-3,3.9-4.4c1.2-1.3,3.4-1,4.5,0.4
				c0.4,0.6,0,1.5-0.9,1.8c-0.7,0.3-1.5,0.4-2.2,0.9c-1.8,1.2-3.2,2.9-4.2,4.9C-326,280.2-326.4,280.8-325.7,281.3z"/>
			<path class="st1" d="M-313.3,287.1c0.2,0.6,0.3,1.2,0.4,1.8c0,0.2,0,0.6-0.1,0.7c-1,1-2,2-3,2.8c-0.3,0.3-0.9,0.3-1.4,0.3
				c-1.2,0-2.4,0.1-3.6,0c-0.9-0.1-1.8-0.4-2.7-0.8c-0.4-0.2-0.6-0.8-0.8-1.3c-0.3-0.7-0.4-1.5-0.6-2.2c-0.3-0.9-0.1-1.6,0.8-1.9
				c2.6-1,5.1-1.9,7.7-2.8c0.3-0.1,0.7-0.1,0.9,0.1c0.6,0.3,1.2,0.7,1.8,1.1C-313,285.5-313.1,286.3-313.3,287.1z M-316.9,285.8
				c-1.3,0.6-2.7,1.2-4,1.9c-0.5,0.3-0.5,1.4-0.1,2s1,0.5,1.5,0.3c0.6-0.2,1.2-0.5,1.7-0.7c1.2-0.4,1.8-1.2,1.9-2.4
				C-315.9,286.3-316.2,286-316.9,285.8z"/>
			<g>
				<path class="st1" d="M-194,290.5c0.2,0,0.5-0.1,0.7-0.1c1.6,0,3.2,0.1,4.7,0.1c0.6,0,1.2-0.1,1.8-0.3c0.8-0.2,1.4-0.7,1.4-1.7
					c0-0.9,0.1-1.8,0.1-2.6c0.1-1.6,0.2-3.2,0.1-4.9c0-1.4-0.2-2.7-0.4-4.1c-0.1-0.5-0.2-1-0.2-1.5c-0.1-1.1-0.7-1.7-1.6-2.2
					c-0.2-0.1-0.6-0.2-0.9-0.1c-1.6,0.3-3.2,0.4-4.6,1.3c-0.6,0.4-1,0.1-1.3-0.4c-0.2-0.3-0.4-0.8-0.4-1.2c-0.2-1.2,0.3-1.5,1.5-1.3
					c0.8,0.1,1.8,0,2.6-0.1c1.2-0.1,2.4-0.3,3.6-0.4c1.6-0.1,2.5,1.1,3.3,2.2s0.9,2.3,1,3.6c0.1,1.1,0.2,2.2,0.3,3.3
					c0,0.7-0.1,1.4-0.1,2.1c-0.1,2-0.1,4-0.2,6c0,0.9-0.2,1.7-0.4,2.6c-0.4,1.5-1.7,1.8-3,1.9c-1.1,0.1-2.3-0.1-3.4-0.3
					c-1.1-0.2-2.2-0.4-3.3-0.7c-0.5-0.2-1-0.6-1.5-0.9C-194.1,290.7-194,290.6-194,290.5z"/>
				<path class="st1" d="M-198,283.4c0-0.4-0.1-0.7,0-0.9c0.2-0.4,0.5-1,0.8-1c1.5,0.2,2.3-0.9,3.3-1.5c1.3-0.8,2.7-1,4.2-0.6
					c0.7,0.2,0.9,0.7,0.7,1.4c-0.1,0.3-0.2,0.6-0.3,0.8c-0.3,0.7-0.4,1.3,0.4,1.7c0.3,0.2,0.4,0.6,0.6,1c-0.4,0.2-0.7,0.5-1.1,0.6
					c-1,0.2-2.1,0.4-3.1,0.6c-0.2,0-0.4,0.2-0.6,0.3c-1,0.9-2.1,1-3.4,0.3C-197.6,285.4-198.2,284.5-198,283.4z M-194.9,282.7
					c0,0.8,0.4,1.4,1,1.4c0.8,0,1.9-1.2,1.9-2.1c0-0.7-0.4-1-1.1-1.1C-194,280.9-194.9,281.7-194.9,282.7z"/>
				<path class="st1" d="M-199.7,277.4c0.1,0,0.3,0,0.4,0.1c1.4,0.5,2.7,0.2,4-0.2c2-0.5,4-1.1,5.9-1.5c0.4-0.1,0.9,0,1.3,0.1
					c0.1,0,0.1,0.6,0,0.6c-0.6,0.4-1.1,0.8-1.8,1.1c-1.6,0.6-3.2,1-4.8,1.5c-1,0.3-2,0.6-3.1,0.8c-0.5,0.1-1-0.2-1.5-0.4
					c-0.4-0.2-0.7-0.4-1-0.7c-0.2-0.2-0.5-0.7-0.5-0.9c0.1-0.3,0.6-0.5,0.9-0.7C-199.8,277.3-199.7,277.3-199.7,277.4z"/>
			</g>
			<g>
				<path class="st1" d="M-214.4,280c-0.4,0.5-0.7,1.1-1.1,1.5c-0.4,0.5-0.9,1-1.2,1.5c-0.1,0.2,0,0.7,0,1c0.3,0,0.5,0,0.8,0
					c1-0.2,1.3-0.9,1.4-1.7c0.1-0.7,0.4-0.8,1-0.9c1-0.1,1.9,0.2,2.5,0.9c0.8,0.9,1.6,1.9,2.2,2.9c0.5,0.9,0.3,1.4-0.7,2.1
					c-0.8,0.5-1.3,0.4-1.9-0.4c-0.2-0.3-0.4-0.6-0.5-0.9c-0.5-1.1-0.8-1.2-1.8-0.6c-1,0.6-2,1.1-3,1.8c-1.2,0.8-2.4,0.5-3.6,0.1
					c-0.8-0.3-1-1-0.5-1.8c1.1-1.6,2.2-3.1,3.2-4.7c0.4-0.6,0.7-1.2,0.9-1.9c0.3-0.7,1-0.9,1.5-0.3C-215,279-214.8,279.5-214.4,280z
					"/>
				<path class="st1" d="M-221,276.7c0.8,0.2,1.3,1,1,1.6c-1,2.1-2,4.2-3.1,6.3c-0.3,0.6-0.7,1.2-1.1,1.7c-0.6,0.7-1.4,0.6-2.1,0
					c-0.9-0.8-1-2.1-0.2-3c1.7-1.7,3.1-3.8,4.4-5.8C-221.8,277.2-221.3,277-221,276.7z"/>
				<path class="st1" d="M-211.6,275c1.1,0.6,2.1,1.2,3.1,1.8c0.2,0.1,0.5,0.4,0.6,0.6c0.3,0.9,0.6,1.9,0.7,2.9
					c0.1,1.2-0.5,1.4-1.6,1.1c-1.6-0.5-2.5-1.6-3-3.1c-0.1-0.3-0.3-0.7-0.4-1C-212.6,276.3-212.5,275.8-211.6,275z"/>
			</g>
			<g>
				<path class="st1" d="M-297.4,278.4c-0.1,0.7-0.3,1.2-0.4,1.8c-0.2,1.7-0.3,3.4-0.4,5.1c0,1.1,0,2.1,0.1,3.2
					c0.1,0.8-0.2,1.3-0.9,1.5c-0.8,0.2-1.5,0.1-1.9-0.7c-0.5-1-0.9-2-1.3-3.1c-0.5-1.4-1-2.8-1.5-4.1c-0.2-0.5-0.3-0.8,0.1-1.3
					c0.2-0.3,0.3-0.7,0.5-0.9c0.4-0.4,0.8-0.9,1.3-1.1c0.5-0.2,0.9,0,0.9,0.7c0,1.1,0,2.2,0,3.3c0,0.2,0,0.5,0.1,0.6
					c0.2,0.4,0.5,0.7,0.8,1c0.1-0.4,0.3-0.7,0.4-1.1c0.3-1.4,0.5-2.8,0.7-4.2c0.1-0.5,0.3-1,1-1c0.2,0,0.4-0.3,0.6-0.5
					c0.5-0.5,0.9-1.1,1.5-1.5c0.2-0.2,0.8-0.1,1,0.1c0.5,0.5,0.9,0.3,1.2-0.1c0.1-0.2,0.2-0.4,0.3-0.6c0.7-1.6,2.1-1.9,3.5-0.9
					c0.5,0.4,0.8,0.4,1.1-0.1c0.1-0.2,0.3-0.4,0.4-0.5c0.5-0.8,1.2-1.1,2-0.7c0.7,0.3,1.3,0.9,1.9,1.5c0.5,0.5,0.3,1.1-0.2,1.5
					c-1,0.8-2,1.5-3,2.3c-1.1,0.8-1,0.7-0.4,1.9c0.2,0.3,0.1,0.9,0,1.2c-0.3,0.8-0.8,1.6-1.2,2.3c-0.4,0.6-0.2,1.1,0.3,1.5
					c0.4,0.3,0.8,0.5,1.2,0.7c1,0.3,1.6,1.1,1.7,2.1c0.2,2.4-0.2,4.7-2.3,6.2c-1.3,0.9-2.9,1.5-4.6,1.5c-0.8,0-1.6,0-2.4,0
					c-0.3,0-0.6-0.3-0.9-0.5c0.2-0.3,0.4-0.7,0.7-0.8c0.8-0.2,1.6-0.4,2.5-0.5c3.1-0.2,4.5-3.3,3.7-5.8c-0.3-0.9-1.2-1-2-1.2
					c-1.1-0.2-1.3-0.5-0.9-1.5c0.3-0.7,0.8-1.4,1.1-2.2c0.1-0.3,0.1-0.9-0.1-1.1c-0.2-0.2-0.8-0.1-1.2-0.1c-0.2,0-0.4,0.2-0.7,0.3
					c-0.4,0-0.8-0.1-1.2-0.1c0-0.3,0-0.7,0.1-1c0.2-0.7,0.7-1.1,1.5-1.4c1-0.3,1.9-0.7,2.8-1.3c0.6-0.4,1-1.2,1.4-1.8
					c0.3-0.4,0-0.7-0.4-0.8c-1.1-0.2-2.2,0.1-3.1,0.7c-0.9,0.7-1.8,1.5-2.7,2.2c-0.6,0.5-1.4,0.4-1.9,0
					C-296.8,278.8-297,278.7-297.4,278.4z"/>
				<path class="st1" d="M-296.4,271.8c0-0.5,0-1,0-1.5c0.1-1.1,1.1-2,2.1-1.9c0.8,0.1,1.2,0.6,0.9,1.4c-0.1,0.5-0.1,0.9-0.2,1.4
					c0.5-0.2,1-0.2,1.4-0.5c1-0.7,2-0.6,3.1-0.3c0.3,0.1,0.7,0.4,0.8,0.7c0.1,0.1-0.3,0.5-0.5,0.7c-0.2,0.2-0.5,0.2-0.6,0.4
					c-0.5,0.9-1,1.3-1.9,0.5c-0.2-0.1-0.7,0.1-1,0.3c-0.7,0.4-1.2,0.9-1.9,1.2c-0.3,0.2-0.8,0.3-1.1,0.2c-0.4-0.2-0.7-0.7-0.9-1.1
					C-296.5,272.8-296.4,272.3-296.4,271.8L-296.4,271.8z"/>
				<path class="st1" d="M-299.7,275c-0.2,0.3-0.4,0.8-0.6,0.8c-0.6,0-1.2-0.1-1.7-0.4c-0.6-0.4-1-1.1-1.4-1.7
					c-0.1-0.2-0.1-0.7,0.1-0.9c0.4-0.5,0.9-1,1.4-1.5c0.4-0.4,0.8-0.2,1,0.2C-300.4,272.6-300.1,273.7-299.7,275z"/>
			</g>
			<g>
				<path class="st1" d="M-272.9,278.9c0.1-0.1,0.4-0.2,0.4-0.3c0.8-1.4,2.3-1.6,3.7-2c0.7-0.2,1.3-0.3,1.3-1.1
					c0.1-1.2-0.3-1.8-1.2-2.1c-0.6-0.2-1.2-0.3-1.8-0.5c-0.5-0.2-1.1-0.6-0.9-1.4c0.2-0.8,0.8-1,1.7-0.7c1.2,0.4,2.4,0,3.6-0.3
					c1-0.3,2-0.8,3,0.1c0.5,0.5,0.6,1,0,1.4c-0.4,0.3-0.8,0.5-1.2,0.7c-1.1,0.4-1.7,1.3-1.3,2.4c0.1,0.2,0.5,0.3,0.7,0.3
					c1.6-0.1,3.3-0.4,4.9-0.2c0.9,0.1,1.8,1,2.4,1.8c1.3,1.9,1.5,1.8-0.3,3.4c-0.5,0.5-1,1-1.7,1.3c-0.4,0.2-0.9,0.2-1.3,0.1
					c-0.6-0.1-0.8-0.7-0.4-1.3c0.3-0.5,0.8-0.9,1-1.4c0.2-0.4,0.4-1,0.3-1.2c-0.2-0.4-0.8-0.8-1.2-0.8c-1.3,0-2.5,0.2-3.8,0.4
					c-0.3,0.1-0.6,0.6-0.6,0.9c-0.1,1.2-0.1,2.3,0,3.5c0,0.2,0.3,0.4,0.4,0.7c0.2-0.2,0.5-0.3,0.6-0.5c0.1-0.3,0-0.7,0.1-1
					c0-0.4,0-0.9,0.1-1.3c0.1-0.3,0.5-0.5,0.8-0.6c0.2,0,0.5,0.3,0.6,0.5c0.9,1.3,0.9,1.6,0,3c-0.1,0.2-0.2,0.7,0,0.8
					c1.2,0.9,0.9,2,0.5,3.1c-0.2,0.7-0.3,1.3,0.2,2c0.4,0.5,0.1,1.1-0.6,1.1c-0.3,0-0.7,0-1,0c-1,0-1.3,0.2-1.4,0.9
					c-0.1,0.7,0.6,1.4,1.3,1.5c1.1,0.1,2.1,0.1,3.2,0.2c0.4,0,1.1,0.1,1.1,0.3c0.1,0.5,0.2,1.2-0.1,1.7c-0.3,0.5-0.8,1-1.6,0.8
					c-1.2-0.3-2.5-0.3-3.7-0.7c-1.1-0.4-1.8-1.2-1.7-2.5c0.1-0.7-0.2-1.2-0.8-1.6c-0.9-0.7-0.8-1.1,0.1-1.7c0.2-0.1,0.5-0.4,0.4-0.5
					c-0.1-0.2-0.3-0.4-0.6-0.5c-0.2,0-0.5,0.1-0.7,0.3c-0.1,0-0.1,0.2-0.1,0.3c-0.1,0.6-0.1,1.2-1,1.2c-0.7,0-1.4-0.7-1.6-1.3
					c-0.2-0.9,0.3-2.7,1.3-3.2c0.8-0.4,1.5-0.9,2.1-1.5c0.2-0.2,0.4-0.6,0.4-1c0-0.6-0.2-1.2-0.2-1.8c0-0.3,0-0.7-0.1-1
					c-0.2-1.1-0.6-1.2-1.6-0.7s-2,0.9-3,1.4c-0.2,0.1-0.5,0.2-0.7,0.1c-0.8-0.3-0.8,0.2-0.8,0.7c0,0.1,0,0.2,0,0.2
					c0.2,0.7,0.2,1.5-0.5,1.8c-0.5,0.2-1.2-0.2-1.7-0.5c-1.2-0.7-1.4-1.4-0.7-2.6c0.6-1,1.4-1.9,2.2-2.7c0.2-0.2,0.8-0.1,1.3-0.1
					c0,0.4,0,0.7,0,1.1c0,0.3-0.1,0.6-0.1,0.8C-273.1,278.9-273,278.9-272.9,278.9z M-265.6,285.2c-0.2,0.6,0.2,1,0.8,0.9
					c0.2,0,0.6-0.5,0.6-0.7c0-0.5,0-1.1-0.8-1.2C-265.6,284.3-265.6,284.8-265.6,285.2z M-266.8,285.4c-0.3-0.3-0.6-0.6-0.7-0.6
					c-0.3,0.2-0.6,0.5-0.9,0.7c0.2,0.2,0.5,0.5,0.7,0.6C-267.4,286.1-267.2,285.7-266.8,285.4z"/>
				<path class="st1" d="M-268.4,281.4c0,0.8-0.6,1.2-1.4,1c-0.4-0.1-0.7-0.2-1-0.5c-0.2-0.2-0.5-0.5-0.5-0.7c0-0.3,0.3-0.7,0.6-0.9
					C-269.6,279.8-268.4,280.4-268.4,281.4z"/>
			</g>
		</g>
	</g>
	<g>
		<circle class="st2" cx="-360.3" cy="280.9" r="19.2"/>
		<circle class="st1" cx="-360.3" cy="280.9" r="19"/>
		<g>
			<path class="st2" d="M-360.4,300.1c-10.5,0-19-8.4-19.1-19.2c0-10.8,8.6-19,18.6-19.2c10.8-0.3,19.6,8.2,19.7,18.9
				C-341.2,291.5-349.7,300.1-360.4,300.1z M-341.9,280.9c0-10.7-8.7-18.5-18.3-18.6c-9.6,0-18.5,7.6-18.6,18.5
				c-0.1,10.5,8.2,18.6,18.3,18.7C-350.2,299.6-341.9,291.2-341.9,280.9z"/>
			<path class="st2" d="M-378,280.9c0-9.9,7.9-17.8,17.8-17.8c9.8,0,17.6,8,17.6,17.9c0,9.7-8,17.7-17.6,17.7
				C-370.2,298.7-378.1,290.8-378,280.9z M-360,263.8c-9.3-0.2-16.8,6.9-17.4,15.9c-0.7,9.7,6.6,17.9,16.3,18.3
				c9.4,0.5,17.4-6.9,17.8-16.4C-342.9,272.1-350.2,264-360,263.8z"/>
			<path class="st2" d="M-376.7,280.9c0-8.7,6.8-16.4,16.4-16.4c9.5,0,16.4,7.6,16.3,16.6s-7.5,16.3-16.4,16.3
				C-369.5,297.3-376.8,289.9-376.7,280.9z M-344.7,281c-0.1-9-7-15.9-15.9-15.8c-8.6,0.1-15.5,7.3-15.5,16
				c0.1,8.6,7.2,15.6,15.8,15.5C-351.7,296.6-344.6,289.4-344.7,281z"/>
			<path class="st2" d="M-366.3,279.9c0.3-0.9,0.3-0.9,1.1-0.9c3.1,0,6.3,0,9.4-0.1c0.9,0,0.9,0,1.3,1c-1.9,0-3.7,0-5.6,0
				c0,0.3,0,0.6,0,0.8c1.9,0,3.9,0,5.9,0c-0.1,0.4-0.3,0.7-0.4,1.1c-0.3,0.7-0.6,1.3-0.8,2c-0.3,0.8-0.3,0.8-1.3,0.7
				c0.4-0.9,0.7-1.8,1.1-2.7c-1-0.2-1.1-0.2-1.4,0.7c-0.2,0.4-0.4,0.9-0.6,1.3c-0.3,0.8-0.3,0.8-1.3,0.7c0.4-0.9,0.7-1.8,1.1-2.8
				c-0.7,0-1.4,0-2.1,0c-0.1,0-0.2,0.2-0.2,0.4c0,1,0,1.9,0,2.9c0,0.4,0.2,0.4,0.5,0.4c0.9,0,1.9,0,2.8,0c0.2,0,0.5,0,0.8,0
				c-0.6,1.5-1.2,3-1.8,4.4c-0.1,0.1-0.3,0.2-0.4,0.2c-0.4,0-0.9,0-1.3,0c-0.1,0-0.4,0.2-0.4,0.3c0,0.6,0,1.3,0,1.9
				c0.1,0,0.1,0,0.2,0c0.1-0.2,0.2-0.4,0.3-0.6c0.3-0.8,0.3-0.8,1.3-0.7c-0.6,1.5-1.2,3-1.9,4.6c-0.4-0.8-0.8-1.5-0.7-2.3
				c0.1-0.9,0-1.9,0-2.8c0-0.3-0.1-0.5-0.5-0.4c-1.1,0.2-1.5-0.3-1.9-1.3c-0.4-1.1-0.9-2.1-1.4-3.3c1.1,0,2,0,3,0
				c0.7,0,0.7,0,0.7-0.7c0-0.8,0-1.7,0-2.5c0-0.4-0.1-0.5-0.5-0.5c-0.5,0-1,0-1.6,0c0.4,1,0.8,1.9,1.1,2.8c-0.9,0.2-1,0.2-1.3-0.6
				c-0.2-0.5-0.4-1-0.6-1.5c-0.3-0.8-0.4-0.8-1.4-0.6c0.4,0.9,0.8,1.8,1.2,2.7c-1,0.2-1,0.2-1.3-0.6c-0.4-1-0.9-2-1.3-3.1
				c1.8,0,3.5,0,5.2,0c0.2,0,0.5-0.1,0.5-0.3c0.1-0.3,0-0.6-0.4-0.6c-1.4,0-2.8,0-4.2,0C-365.8,279.9-366,279.9-366.3,279.9z
				 M-357.5,286.3c-0.7,0-1.4,0-2.2,0c-0.3,0-0.4,0.2-0.4,0.5c0,0.3,0.1,0.5,0.4,0.5c0.4,0,0.8,0,1.2,0
				C-357.8,287.3-357.6,287-357.5,286.3z M-363.1,286.4c0,0.1-0.1,0.1-0.1,0.2c0.2,0.2,0.4,0.6,0.6,0.7c0.4,0.1,0.9,0.1,1.3,0
				c0.1,0,0.3-0.2,0.3-0.4c0-0.2-0.1-0.5-0.2-0.5C-361.8,286.4-362.5,286.4-363.1,286.4z M-358.3,288.2c-0.5,0-1,0-1.4,0
				c-0.1,0-0.3,0.2-0.3,0.3c0,0.2,0,0.5,0.2,0.6C-359.3,289.4-358.4,289-358.3,288.2z M-362.3,288.2c0.2,0.9,0.3,1,1.3,0.8
				C-360.8,288.1-361,288-362.3,288.2z"/>
			<path class="st3" d="M-370.9,275.5c1.1-1.6,2.3-3.1,3.4-4.7h0.1c0,0.7-0.1,1.3-0.1,2l0.1,0.1c2-2.2,3.9-4.4,5.9-6.7
				c0,0,0,0,0.1,0c-2.6,3.6-5.1,7.3-7.8,11c0-0.8,0-1.3,0-1.9c0,0-0.1,0-0.1-0.1c-1.1,1.5-2.3,2.9-3.4,4.4c0,0,0,0-0.1,0
				c0.1-0.6,0.3-1.1,0.4-1.7l-0.1-0.1c-0.9,0.8-1.8,1.5-2.7,2.3c0,0,0,0-0.1-0.1c1.3-1.9,2.7-3.7,4-5.6c0,0,0.1,0,0.1,0.1
				c0,0.3,0,0.6,0,0.9C-371,275.5-371,275.5-370.9,275.5z"/>
			<path class="st3" d="M-358.9,266.7c1.9,2,3.7,4,5.6,6c0,0,0.1,0,0.1-0.1c0-0.6-0.1-1.2-0.1-1.8c0,0,0.1,0,0.1-0.1
				c1.1,1.5,2.3,3,3.5,4.7c0-0.5,0-0.8,0-1.2h0.1c1.4,1.9,2.7,3.7,4.1,5.6c0,0,0,0-0.1,0.1c-0.9-0.8-1.8-1.5-2.7-2.3
				c0,0-0.1,0-0.1,0.1c0.1,0.6,0.3,1.2,0.4,1.8c0,0,0,0-0.1,0c-1.1-1.5-2.3-2.9-3.4-4.4c-0.1,0-0.1,0-0.2,0c0,0.6,0.1,1.2,0.1,1.7
				l-0.1,0.1c-2.4-3.3-4.9-6.7-7.3-10.1C-359,266.8-359,266.7-358.9,266.7z"/>
			<path class="st3" d="M-361.5,295.3c-1.9-2.1-3.9-4.3-5.8-6.4h-0.1c0,0.7,0.1,1.3,0.1,2c0,0-0.1,0-0.1,0.1
				c-1.2-1.5-2.3-3.1-3.5-4.6h-0.1c0,0.3,0,0.6,0,0.9c0,0-0.1,0-0.1,0.1c-1.3-1.8-2.7-3.7-4-5.5l0.1-0.1c0.9,0.8,1.8,1.5,2.7,2.3
				l0.1-0.1c-0.1-0.6-0.3-1.1-0.4-1.7h0.1c1.1,1.4,2.3,2.9,3.5,4.4c0-0.7,0-1.3,0-1.9c0,0,0.1,0,0.1-0.1
				C-366.4,288.3-363.9,291.8-361.5,295.3C-361.4,295.3-361.4,295.3-361.5,295.3z"/>
			<path class="st3" d="M-351.5,284.7c0,0.6,0,1.1,0,1.7c0,0,0.1,0,0.1,0.1c1.1-1.4,2.2-2.9,3.3-4.3h0.1c-0.1,0.5-0.2,1.1-0.4,1.6
				l0.1,0.1c0.9-0.8,1.8-1.5,2.7-2.3c0,0,0,0,0.1,0.1c-1.3,1.9-2.7,3.7-4.1,5.7c0-0.5,0-0.8,0-1.1c0,0-0.1,0-0.1-0.1
				c-1.1,1.6-2.3,3.1-3.5,4.7c0-0.7,0-1.4,0-2.2c-2,2.2-3.9,4.4-5.9,6.5c0,0,0,0-0.1-0.1c2.5-3.5,5-7,7.5-10.5
				C-351.6,284.7-351.6,284.7-351.5,284.7z"/>
			<path class="st2" d="M-365.3,277.6c0.5-1.1,1-2.1,1.4-3.2c0.3-0.8,0.7-1.1,1.6-1.1c1.6,0.1,3.1,0,4.7,0c0.2,0,0.5,0.1,0.5,0.2
				c0.6,1.3,1.2,2.7,1.8,4.1C-358.7,277.6-362,277.6-365.3,277.6z M-356.8,276.7c-0.4-0.8-0.6-1.5-1-2.2c0-0.1-0.2-0.2-0.4-0.2
				c-1.5,0-2.9,0-4.4,0c-0.1,0-0.3,0.1-0.3,0.2c-0.3,0.7-0.6,1.4-1,2.2C-361.5,276.7-359.2,276.7-356.8,276.7z"/>
			<path class="st2" d="M-361.6,271.5c0.8,0,1.6,0,2.4,0c-0.2-0.6-0.5-1.1-0.6-1.7c0-0.3,0.3-0.6,0.5-1.1c0.6,1.3,1.1,2.5,1.6,3.7
				c-1.8,0-3.6,0-5.4,0c0.9-2,1.8-4.1,2.7-6.1c0.5,0.6,0.6,1.2,0.2,2c-0.5,0.8-0.8,1.7-1.2,2.6C-361.4,271-361.5,271.2-361.6,271.5z
				"/>
		</g>
	</g>
</g>
</svg>
